<mxfile host="app.diagrams.net" modified="2024-06-25T07:38:58.945Z" agent="Mozilla/5.0 (Macintosh; Intel Mac OS X 10_15_7) AppleWebKit/537.36 (KHTML, like Gecko) Chrome/120.0.0.0 Safari/537.36" etag="sk55wWIMbIL_qxMlSPw2" version="24.2.3" type="github">
  <diagram name="Seite-1" id="mBDrLM4MaX24ssB-rTIG">
    <mxGraphModel dx="925" dy="441" grid="1" gridSize="10" guides="1" tooltips="1" connect="1" arrows="1" fold="1" page="1" pageScale="1" pageWidth="827" pageHeight="1169" math="0" shadow="0">
      <root>
        <mxCell id="0" />
        <mxCell id="1" parent="0" />
        <mxCell id="d-Noob1IXxZUEZl30vva-7" style="edgeStyle=orthogonalEdgeStyle;rounded=0;orthogonalLoop=1;jettySize=auto;html=1;exitX=1;exitY=0.5;exitDx=0;exitDy=0;entryX=0;entryY=0.5;entryDx=0;entryDy=0;" edge="1" parent="1" source="d-Noob1IXxZUEZl30vva-1" target="d-Noob1IXxZUEZl30vva-2">
          <mxGeometry relative="1" as="geometry" />
        </mxCell>
        <mxCell id="d-Noob1IXxZUEZl30vva-9" value="(1) zu (N)&lt;div&gt;userId&lt;/div&gt;" style="edgeLabel;html=1;align=center;verticalAlign=middle;resizable=0;points=[];" vertex="1" connectable="0" parent="d-Noob1IXxZUEZl30vva-7">
          <mxGeometry x="-0.0282" y="-1" relative="1" as="geometry">
            <mxPoint y="-1" as="offset" />
          </mxGeometry>
        </mxCell>
        <mxCell id="d-Noob1IXxZUEZl30vva-1" value="User" style="rounded=0;whiteSpace=wrap;html=1;" vertex="1" parent="1">
          <mxGeometry x="260" y="160" width="120" height="60" as="geometry" />
        </mxCell>
        <mxCell id="d-Noob1IXxZUEZl30vva-6" style="edgeStyle=orthogonalEdgeStyle;rounded=0;orthogonalLoop=1;jettySize=auto;html=1;entryX=0.5;entryY=1;entryDx=0;entryDy=0;" edge="1" parent="1" source="d-Noob1IXxZUEZl30vva-2" target="d-Noob1IXxZUEZl30vva-3">
          <mxGeometry relative="1" as="geometry" />
        </mxCell>
        <mxCell id="d-Noob1IXxZUEZl30vva-10" value="(1) zu (N)&lt;div&gt;plantId&lt;/div&gt;" style="edgeLabel;html=1;align=center;verticalAlign=middle;resizable=0;points=[];" vertex="1" connectable="0" parent="d-Noob1IXxZUEZl30vva-6">
          <mxGeometry x="-0.0849" relative="1" as="geometry">
            <mxPoint as="offset" />
          </mxGeometry>
        </mxCell>
        <mxCell id="d-Noob1IXxZUEZl30vva-8" style="edgeStyle=orthogonalEdgeStyle;rounded=0;orthogonalLoop=1;jettySize=auto;html=1;entryX=0;entryY=0.5;entryDx=0;entryDy=0;" edge="1" parent="1" source="d-Noob1IXxZUEZl30vva-2" target="d-Noob1IXxZUEZl30vva-4">
          <mxGeometry relative="1" as="geometry" />
        </mxCell>
        <mxCell id="d-Noob1IXxZUEZl30vva-11" value="(1) zu (N)&lt;div&gt;plantId&lt;/div&gt;" style="edgeLabel;html=1;align=center;verticalAlign=middle;resizable=0;points=[];" vertex="1" connectable="0" parent="d-Noob1IXxZUEZl30vva-8">
          <mxGeometry x="0.004" relative="1" as="geometry">
            <mxPoint as="offset" />
          </mxGeometry>
        </mxCell>
        <mxCell id="d-Noob1IXxZUEZl30vva-2" value="Plant" style="rounded=0;whiteSpace=wrap;html=1;" vertex="1" parent="1">
          <mxGeometry x="460" y="160" width="120" height="60" as="geometry" />
        </mxCell>
        <mxCell id="d-Noob1IXxZUEZl30vva-3" value="Watering" style="rounded=0;whiteSpace=wrap;html=1;" vertex="1" parent="1">
          <mxGeometry x="460" y="40" width="120" height="60" as="geometry" />
        </mxCell>
        <mxCell id="d-Noob1IXxZUEZl30vva-4" value="Watering Schedule" style="rounded=0;whiteSpace=wrap;html=1;" vertex="1" parent="1">
          <mxGeometry x="660" y="160" width="120" height="60" as="geometry" />
        </mxCell>
      </root>
    </mxGraphModel>
  </diagram>
</mxfile>
